# xmcd CD database file
#
# Track frame offsets:
#	150
#	16801
#	41101
#	62650
#	81764
#	103943
#	126540
#	144390
#	166308
#	190521
#	212641
#	232187
#	248107
#	269499
#	285374
#
# Disc length: 3974 seconds
#
# Revision: 1
# Processed by: cddbd v1.5.1PL0 Copyright (c) Steve Scherf et al.
# Submitted via: CDex 1.51
#
DISCID=d80f840f
DTITLE=Keith Urban - Days Go By
DYEAR=1900
DGENRE=Country
TTITLE0=Days Go By (Jeremy Wheatley Mix)
TTITLE1=Somebody Like You
TTITLE2=Raining On Sunday
TTITLE3=You're My Better Half
TTITLE4=You'll Think Of Me
TTITLE5=You Won
TTITLE6=Making Memories Of Us
TTITLE7=You (or somebody like you)
TTITLE8=Nobody Drinks Alone
TTITLE9=She's Gotta Be
TTITLE10=Tonight I Wanna Cry
TTITLE11=You're Not Alone Tonight
TTITLE12=Better Life
TTITLE13=Live To Love Another Day
TTITLE14=These Are The Days
EXTD=
EXTT0=
EXTT1=
EXTT2=
EXTT3=
EXTT4=
EXTT5=
EXTT6=
EXTT7=
EXTT8=
EXTT9=
EXTT10=
EXTT11=
EXTT12=
EXTT13=
EXTT14=
PLAYORDER=
